<svg fill="white" viewBox="-1097.8284923928077 -924.3496540182899 2195.6569847856154 1668.6993080365799" xmlns:xlink="http://www.w3.org/1999/xlink" version="1.1"><rect x="-1097.8284923928077" y="-924.3496540182899" width="2195.6569847856154" height="1668.6993080365799" fill="#232323"></rect><g transform="translate(-796.058091286307 98.89349930843706) scale(1.9210081450745349)" fill="white"><g id="line1"><path d="M44.640-43.740C39.840-48.132 32.952-50.328 23.976-50.328L6.192-50.328L6.192 0L23.400 0C33.000 0 40.140-2.280 44.820-6.840C49.500-11.400 51.840-17.592 51.840-25.416C51.840-33.240 49.440-39.348 44.640-43.740ZM36.396-13.824C33.636-11.232 29.688-9.936 24.552-9.936L17.424-9.936L17.424-40.536L23.688-40.536C29.400-40.536 33.636-39.204 36.396-36.540C39.156-33.876 40.536-30.072 40.536-25.128C40.536-20.184 39.156-16.416 36.396-13.824Z" transform="translate(0 0) scale(1 1) skewX(0)" style="opacity: 1;"></path><path d="M97.056-50.328L60.768-50.328L60.768 0L97.848 0L97.848-9.936L72.000-9.936L72.000-20.376L94.536-20.376L94.536-29.952L72.000-29.952L72.000-40.320L97.056-40.320Z" transform="translate(0 0) scale(1 1) skewX(0)" style="opacity: 1;"></path><path d="M130.176-9.936C126.144-9.936 122.712-11.352 119.880-14.184C117.048-17.016 115.632-20.772 115.632-25.452C115.632-30.132 117.132-33.852 120.132-36.612C123.132-39.372 126.744-40.752 130.968-40.752C136.248-40.752 140.664-38.544 144.216-34.128L151.200-42.048C145.632-48.336 138.720-51.480 130.464-51.480C123.072-51.480 116.820-48.984 111.708-43.992C106.596-39.000 104.040-32.772 104.040-25.308C104.040-17.844 106.548-11.664 111.564-6.768C116.580-1.872 122.964 0.576 130.716 0.576C138.468 0.576 145.200-2.640 150.912-9.072L143.712-16.488C140.208-12.120 135.696-9.936 130.176-9.936Z" transform="translate(0 0) scale(1 1) skewX(0)" style="opacity: 1;"></path><path d="M195.264-50.328L158.976-50.328L158.976 0L196.056 0L196.056-9.936L170.208-9.936L170.208-20.376L192.744-20.376L192.744-29.952L170.208-29.952L170.208-40.320L195.264-40.320Z" transform="translate(0 0) scale(1 1) skewX(0)" style="opacity: 1;"></path><path d="M240.480-50.328L240.480-17.928L215.784-50.328L205.272-50.328L205.272 0L216.504 0L216.504-31.536L240.480 0L251.712 0L251.712-50.328Z" transform="translate(0 0) scale(1 1) skewX(0)" style="opacity: 1;"></path><path d="M284.616-40.608L298.872-40.608L298.872-50.328L259.128-50.328L259.128-40.608L273.384-40.608L273.384 0L284.616 0Z" transform="translate(0 0) scale(1 1) skewX(0)" style="opacity: 1;"></path><path d="" transform="translate(0 0) scale(1 1) skewX(0)" style="opacity: 1;"></path><path d="M347.616-9.936C343.584-9.936 340.152-11.352 337.320-14.184C334.488-17.016 333.072-20.772 333.072-25.452C333.072-30.132 334.572-33.852 337.572-36.612C340.572-39.372 344.184-40.752 348.408-40.752C353.688-40.752 358.104-38.544 361.656-34.128L368.640-42.048C363.072-48.336 356.160-51.480 347.904-51.480C340.512-51.480 334.260-48.984 329.148-43.992C324.036-39.000 321.480-32.772 321.480-25.308C321.480-17.844 323.988-11.664 329.004-6.768C334.020-1.872 340.404 0.576 348.156 0.576C355.908 0.576 362.640-2.640 368.352-9.072L361.152-16.488C357.648-12.120 353.136-9.936 347.616-9.936Z" transform="translate(0 0) scale(1 1) skewX(0)" style="opacity: 1;"></path><path d="M376.416 0L409.104 0L409.104-10.008L387.648-10.008L387.648-50.328L376.416-50.328Z" transform="translate(0 0) scale(1 1) skewX(0)" style="opacity: 1;"></path><path d="M449.352-36.936C452.232-33.768 453.672-29.940 453.672-25.452C453.672-20.964 452.232-17.148 449.352-14.004C446.472-10.860 442.932-9.288 438.732-9.288C434.532-9.288 430.992-10.860 428.112-14.004C425.232-17.148 423.792-20.964 423.792-25.452C423.792-29.940 425.232-33.768 428.112-36.936C430.992-40.104 434.532-41.688 438.732-41.688C442.932-41.688 446.472-40.104 449.352-36.936ZM438.696 0.504C446.136 0.504 452.400-1.980 457.488-6.948C462.576-11.916 465.120-18.096 465.120-25.488C465.120-32.880 462.576-39.060 457.488-44.028C452.400-48.996 446.136-51.480 438.696-51.480C431.256-51.480 424.992-48.996 419.904-44.028C414.816-39.060 412.272-32.880 412.272-25.488C412.272-18.096 414.816-11.916 419.904-6.948C424.992-1.980 431.256 0.504 438.696 0.504Z" transform="translate(0 0) scale(1 1) skewX(0)" style="opacity: 1;"></path><path d="M493.776-40.608L508.032-40.608L508.032-50.328L468.288-50.328L468.288-40.608L482.544-40.608L482.544 0L493.776 0Z" transform="translate(0 0) scale(1 1) skewX(0)" style="opacity: 1;"></path><path d="M546.696-50.328L546.696-29.304L526.680-29.304L526.680-50.328L515.448-50.328L515.448 0L526.680 0L526.680-19.800L546.696-19.800L546.696 0L557.928 0L557.928-50.328Z" transform="translate(0 0) scale(1 1) skewX(0)" style="opacity: 1;"></path><path d="M569.520-50.328L569.520 0L580.752 0L580.752-50.328Z" transform="translate(0 0) scale(1 1) skewX(0)" style="opacity: 1;"></path><path d="M627.552-50.328L627.552-17.928L602.856-50.328L592.344-50.328L592.344 0L603.576 0L603.576-31.536L627.552 0L638.784 0L638.784-50.328Z" transform="translate(0 0) scale(1 1) skewX(0)" style="opacity: 1;"></path><path d="M683.064-25.632L683.064-11.808C680.472-10.320 677.232-9.576 673.344-9.576C669.456-9.576 666.108-11.004 663.300-13.860C660.492-16.716 659.088-20.520 659.088-25.272C659.088-30.024 660.552-33.852 663.480-36.756C666.408-39.660 670.008-41.112 674.280-41.112C676.488-41.112 678.540-40.740 680.436-39.996C682.332-39.252 684.408-37.896 686.664-35.928L692.496-44.352C687.168-49.104 680.892-51.480 673.668-51.480C666.444-51.480 660.276-48.984 655.164-43.992C650.052-39.000 647.496-32.772 647.496-25.308C647.496-17.844 650.004-11.664 655.020-6.768C660.036-1.872 666.240 0.576 673.632 0.576C682.464 0.576 689.376-2.208 694.368-7.776L694.368-25.632Z" transform="translate(0 0) scale(1 1) skewX(0)" style="opacity: 1;"></path><path d="" transform="translate(0 0) scale(1 1) skewX(0)" style="opacity: 1;"></path><path d="M744.912-9.936C740.880-9.936 737.448-11.352 734.616-14.184C731.784-17.016 730.368-20.772 730.368-25.452C730.368-30.132 731.868-33.852 734.868-36.612C737.868-39.372 741.480-40.752 745.704-40.752C750.984-40.752 755.400-38.544 758.952-34.128L765.936-42.048C760.368-48.336 753.456-51.480 745.200-51.480C737.808-51.480 731.556-48.984 726.444-43.992C721.332-39.000 718.776-32.772 718.776-25.308C718.776-17.844 721.284-11.664 726.300-6.768C731.316-1.872 737.700 0.576 745.452 0.576C753.204 0.576 759.936-2.640 765.648-9.072L758.448-16.488C754.944-12.120 750.432-9.936 744.912-9.936Z" transform="translate(0 0) scale(1 1) skewX(0)" style="opacity: 1;"></path><path d="M806.832-36.936C809.712-33.768 811.152-29.940 811.152-25.452C811.152-20.964 809.712-17.148 806.832-14.004C803.952-10.860 800.412-9.288 796.212-9.288C792.012-9.288 788.472-10.860 785.592-14.004C782.712-17.148 781.272-20.964 781.272-25.452C781.272-29.940 782.712-33.768 785.592-36.936C788.472-40.104 792.012-41.688 796.212-41.688C800.412-41.688 803.952-40.104 806.832-36.936ZM796.176 0.504C803.616 0.504 809.880-1.980 814.968-6.948C820.056-11.916 822.600-18.096 822.600-25.488C822.600-32.880 820.056-39.060 814.968-44.028C809.880-48.996 803.616-51.480 796.176-51.480C788.736-51.480 782.472-48.996 777.384-44.028C772.296-39.060 769.752-32.880 769.752-25.488C769.752-18.096 772.296-11.916 777.384-6.948C782.472-1.980 788.736 0.504 796.176 0.504Z" transform="translate(0 0) scale(1 1) skewX(0)" style="opacity: 1;"></path></g></g><g transform="translate(-187.5 -344.3939393939394) scale(3.7878787878787876)" id="logomark"><g fill="white" transform="translate(0 0) scale(1 1) skewX(0)" style="opacity: 1;"><g><path d="M82 44c-4.188 0-7.696 2.863-8.701 6.736l-7.502-.228a16.914 16.914 0 0 0-4.24-8.94l9.479-13.356A5.96 5.96 0 0 0 74 29a6 6 0 1 0-6-6c0 1.5.554 2.868 1.464 3.919l-11.361 11.74A16.902 16.902 0 0 0 49 36a16.912 16.912 0 0 0-9.658 3.018l-8.125-7.812A6.944 6.944 0 0 0 32 28a7 7 0 1 0-7 7 6.96 6.96 0 0 0 2.959-.663l7.491 8.427A16.903 16.903 0 0 0 32 53c0 2.512.559 4.888 1.537 7.034l-8.97 5.437A9.954 9.954 0 0 0 18 63c-5.523 0-10 4.477-10 10s4.477 10 10 10 10-4.477 10-10a9.99 9.99 0 0 0-.488-3.08l8.325-6.167C38.954 67.564 43.692 70 49 70c8.54 0 15.589-6.305 16.797-14.509l7.502-.228C74.304 59.137 77.812 62 82 62c4.971 0 9-4.029 9-9s-4.029-9-9-9z"></path></g></g></g></svg>
