<svg class="jsx-2263963463 artboard"><svg viewBox="0 0 50 50" xmlns="http://www.w3.org/2000/svg" xmlns:xlink="http://www.w3.org/1999/xlink" version="1.1" class="jsx-2263963463 artboard-inner" style="width: 55px; height: 55px; max-height: 100%;"><g transform="translate(24.75 25) scale(1.4285714285714286)" id="lockup4-icon"><g fill="#232323"><g transform="translate(-17.325 -17.5) scale(0.3431372549019608)" id="container"><g fill="#232323"><polygon vector-effect="non-scaling-stroke" points="1 101 101 101 101 1 1 1"></polygon> </g></g><g transform="translate(-11.727710843373494 -12.20722891566265) scale(0.24096385542168675)" id="icon"><g fill="#FFFFFF"><g><path d="M82 44c-4.188 0-7.696 2.863-8.701 6.736l-7.502-.228a16.914 16.914 0 0 0-4.24-8.94l9.479-13.356A5.96 5.96 0 0 0 74 29a6 6 0 1 0-6-6c0 1.5.554 2.868 1.464 3.919l-11.361 11.74A16.902 16.902 0 0 0 49 36a16.912 16.912 0 0 0-9.658 3.018l-8.125-7.812A6.944 6.944 0 0 0 32 28a7 7 0 1 0-7 7 6.96 6.96 0 0 0 2.959-.663l7.491 8.427A16.903 16.903 0 0 0 32 53c0 2.512.559 4.888 1.537 7.034l-8.97 5.437A9.954 9.954 0 0 0 18 63c-5.523 0-10 4.477-10 10s4.477 10 10 10 10-4.477 10-10a9.99 9.99 0 0 0-.488-3.08l8.325-6.167C38.954 67.564 43.692 70 49 70c8.54 0 15.589-6.305 16.797-14.509l7.502-.228C74.304 59.137 77.812 62 82 62c4.971 0 9-4.029 9-9s-4.029-9-9-9z"></path></g></g></g></g></g></svg></svg>
<svg viewBox="0 0 50 50" xmlns="http://www.w3.org/2000/svg" xmlns:xlink="http://www.w3.org/1999/xlink" version="1.1" class="jsx-2263963463 artboard-inner" style="width: 55px; height: 55px; max-height: 100%;"><g transform="translate(24.75 25) scale(1.4285714285714286)" id="lockup4-icon"><g fill="#232323"><g transform="translate(-17.325 -17.5) scale(0.35)" id="container"><g fill="#232323"><rect vector-effect="non-scaling-stroke" x="1" y="1" width="98" height="98" rx="10"></rect></g></g><g transform="translate(-11.727710843373494 -12.20722891566265) scale(0.24096385542168675)" id="icon"><g fill="#FFFFFF"><g><path d="M82 44c-4.188 0-7.696 2.863-8.701 6.736l-7.502-.228a16.914 16.914 0 0 0-4.24-8.94l9.479-13.356A5.96 5.96 0 0 0 74 29a6 6 0 1 0-6-6c0 1.5.554 2.868 1.464 3.919l-11.361 11.74A16.902 16.902 0 0 0 49 36a16.912 16.912 0 0 0-9.658 3.018l-8.125-7.812A6.944 6.944 0 0 0 32 28a7 7 0 1 0-7 7 6.96 6.96 0 0 0 2.959-.663l7.491 8.427A16.903 16.903 0 0 0 32 53c0 2.512.559 4.888 1.537 7.034l-8.97 5.437A9.954 9.954 0 0 0 18 63c-5.523 0-10 4.477-10 10s4.477 10 10 10 10-4.477 10-10a9.99 9.99 0 0 0-.488-3.08l8.325-6.167C38.954 67.564 43.692 70 49 70c8.54 0 15.589-6.305 16.797-14.509l7.502-.228C74.304 59.137 77.812 62 82 62c4.971 0 9-4.029 9-9s-4.029-9-9-9z"></path></g></g></g></g></g></svg>
<svg class="jsx-2263963463 artboard"><svg viewBox="0 0 50 50" xmlns="http://www.w3.org/2000/svg" xmlns:xlink="http://www.w3.org/1999/xlink" version="1.1" class="jsx-2263963463 artboard-inner" style="width: 55px; height: 55px; max-height: 100%;"><g transform="translate(24.75 25) scale(1.4285714285714286)" id="lockup4-icon"><g fill="#232323"><g transform="translate(-17.325 -17.5) scale(0.3431372549019608)" id="container"><g fill="#232323"><circle vector-effect="non-scaling-stroke" cx="51" cy="51" r="50"></circle></g></g><g transform="translate(-11.727710843373494 -12.20722891566265) scale(0.24096385542168675)" id="icon"><g fill="#FFFFFF"><g><path d="M82 44c-4.188 0-7.696 2.863-8.701 6.736l-7.502-.228a16.914 16.914 0 0 0-4.24-8.94l9.479-13.356A5.96 5.96 0 0 0 74 29a6 6 0 1 0-6-6c0 1.5.554 2.868 1.464 3.919l-11.361 11.74A16.902 16.902 0 0 0 49 36a16.912 16.912 0 0 0-9.658 3.018l-8.125-7.812A6.944 6.944 0 0 0 32 28a7 7 0 1 0-7 7 6.96 6.96 0 0 0 2.959-.663l7.491 8.427A16.903 16.903 0 0 0 32 53c0 2.512.559 4.888 1.537 7.034l-8.97 5.437A9.954 9.954 0 0 0 18 63c-5.523 0-10 4.477-10 10s4.477 10 10 10 10-4.477 10-10a9.99 9.99 0 0 0-.488-3.08l8.325-6.167C38.954 67.564 43.692 70 49 70c8.54 0 15.589-6.305 16.797-14.509l7.502-.228C74.304 59.137 77.812 62 82 62c4.971 0 9-4.029 9-9s-4.029-9-9-9z"></path></g></g></g></g></g></svg></svg>
<svg class="jsx-2263963463 artboard"><svg viewBox="0 0 43.137254901960794 50" xmlns="http://www.w3.org/2000/svg" xmlns:xlink="http://www.w3.org/1999/xlink" version="1.1" class="jsx-2263963463 artboard-inner" style="width: 55px; height: 63.75px; max-height: 100%;"><g transform="translate(21.35294117647059 25.000000000000004) scale(1.2324929971988798)" id="lockup4-icon"><g fill="#232323"><g transform="translate(-17.325 -20.284090909090907) scale(0.3977272727272727)" id="container"><g fill="#232323"><polygon vector-effect="non-scaling-stroke" transform="translate(44.000000, 51.300001) rotate(90.000000) translate(-44.000000, -51.300001) " points="69 8 94 51.3000014 69 94.6000027 19 94.6000027 -6 51.3000014 19 8"></polygon></g></g><g transform="translate(-11.727710843373494 -12.20722891566265) scale(0.24096385542168675)" id="icon"><g fill="#FFFFFF"><g><path d="M82 44c-4.188 0-7.696 2.863-8.701 6.736l-7.502-.228a16.914 16.914 0 0 0-4.24-8.94l9.479-13.356A5.96 5.96 0 0 0 74 29a6 6 0 1 0-6-6c0 1.5.554 2.868 1.464 3.919l-11.361 11.74A16.902 16.902 0 0 0 49 36a16.912 16.912 0 0 0-9.658 3.018l-8.125-7.812A6.944 6.944 0 0 0 32 28a7 7 0 1 0-7 7 6.96 6.96 0 0 0 2.959-.663l7.491 8.427A16.903 16.903 0 0 0 32 53c0 2.512.559 4.888 1.537 7.034l-8.97 5.437A9.954 9.954 0 0 0 18 63c-5.523 0-10 4.477-10 10s4.477 10 10 10 10-4.477 10-10a9.99 9.99 0 0 0-.488-3.08l8.325-6.167C38.954 67.564 43.692 70 49 70c8.54 0 15.589-6.305 16.797-14.509l7.502-.228C74.304 59.137 77.812 62 82 62c4.971 0 9-4.029 9-9s-4.029-9-9-9z"></path></g></g></g></g></g></svg></svg>
<svg class="jsx-2263963463 artboard"><svg viewBox="0 0 62.878787878787875 50" xmlns="http://www.w3.org/2000/svg" xmlns:xlink="http://www.w3.org/1999/xlink" version="1.1" class="jsx-2263963463 artboard-inner" style="width: 41px; height: 32.6024px; max-height: 100%;"><g transform="translate(-6.0606060606060606 -12.878787878787879) scale(0.7575757575757576)" id="lockup4-icon"><g fill="#232323"><g><path d="M82 44c-4.188 0-7.696 2.863-8.701 6.736l-7.502-.228a16.914 16.914 0 0 0-4.24-8.94l9.479-13.356A5.96 5.96 0 0 0 74 29a6 6 0 1 0-6-6c0 1.5.554 2.868 1.464 3.919l-11.361 11.74A16.902 16.902 0 0 0 49 36a16.912 16.912 0 0 0-9.658 3.018l-8.125-7.812A6.944 6.944 0 0 0 32 28a7 7 0 1 0-7 7 6.96 6.96 0 0 0 2.959-.663l7.491 8.427A16.903 16.903 0 0 0 32 53c0 2.512.559 4.888 1.537 7.034l-8.97 5.437A9.954 9.954 0 0 0 18 63c-5.523 0-10 4.477-10 10s4.477 10 10 10 10-4.477 10-10a9.99 9.99 0 0 0-.488-3.08l8.325-6.167C38.954 67.564 43.692 70 49 70c8.54 0 15.589-6.305 16.797-14.509l7.502-.228C74.304 59.137 77.812 62 82 62c4.971 0 9-4.029 9-9s-4.029-9-9-9z"></path></g></g></g></svg></svg>
